<mxfile host="app.diagrams.net" agent="Mozilla/5.0 (Windows NT 10.0; Win64; x64) AppleWebKit/537.36 (KHTML, like Gecko) Chrome/131.0.0.0 Safari/537.36" version="26.0.4">
  <diagram name="第 1 页" id="3wDqX590935IAha1_t0v">
    <mxGraphModel dx="977" dy="620" grid="1" gridSize="10" guides="1" tooltips="1" connect="1" arrows="1" fold="1" page="1" pageScale="1" pageWidth="827" pageHeight="1169" math="0" shadow="0">
      <root>
        <mxCell id="0" />
        <mxCell id="1" parent="0" />
        <mxCell id="uV-7LG1ietYZEQFbntfc-171" style="rounded=0;orthogonalLoop=1;jettySize=auto;html=1;entryX=0.781;entryY=1;entryDx=0;entryDy=0;entryPerimeter=0;dashed=1;" edge="1" parent="1">
          <mxGeometry relative="1" as="geometry">
            <mxPoint x="297" y="351.25" as="sourcePoint" />
            <mxPoint x="240" y="220.25" as="targetPoint" />
          </mxGeometry>
        </mxCell>
        <mxCell id="uV-7LG1ietYZEQFbntfc-131" style="rounded=0;orthogonalLoop=1;jettySize=auto;html=1;entryX=0.781;entryY=1;entryDx=0;entryDy=0;entryPerimeter=0;dashed=1;" edge="1" parent="1" source="uV-7LG1ietYZEQFbntfc-121" target="uV-7LG1ietYZEQFbntfc-124">
          <mxGeometry relative="1" as="geometry" />
        </mxCell>
        <mxCell id="uV-7LG1ietYZEQFbntfc-68" value="" style="verticalLabelPosition=bottom;aspect=fixed;html=1;shape=mxgraph.salesforce.iot2;" vertex="1" parent="1">
          <mxGeometry x="280" y="351.25" width="60" height="60" as="geometry" />
        </mxCell>
        <mxCell id="uV-7LG1ietYZEQFbntfc-119" style="rounded=0;orthogonalLoop=1;jettySize=auto;html=1;dashed=1;" edge="1" parent="1" source="uV-7LG1ietYZEQFbntfc-72" target="uV-7LG1ietYZEQFbntfc-73">
          <mxGeometry relative="1" as="geometry" />
        </mxCell>
        <mxCell id="uV-7LG1ietYZEQFbntfc-72" value="" style="verticalLabelPosition=bottom;aspect=fixed;html=1;shape=mxgraph.salesforce.iot2;" vertex="1" parent="1">
          <mxGeometry x="99.99999999999999" y="351.25" width="60" height="60" as="geometry" />
        </mxCell>
        <mxCell id="uV-7LG1ietYZEQFbntfc-73" value="" style="verticalLabelPosition=bottom;aspect=fixed;html=1;shape=mxgraph.salesforce.communications2;" vertex="1" parent="1">
          <mxGeometry x="193.14" y="160" width="60" height="60" as="geometry" />
        </mxCell>
        <mxCell id="uV-7LG1ietYZEQFbntfc-87" value="" style="html=1;dashed=0;whiteSpace=wrap;shape=mxgraph.dfd.start;fillColor=#dae8fc;strokeColor=#6c8ebf;" vertex="1" parent="1">
          <mxGeometry x="143.61470588235295" y="318.2963636363636" width="26.470588235294116" height="10.909090909090908" as="geometry" />
        </mxCell>
        <mxCell id="uV-7LG1ietYZEQFbntfc-88" value="A" style="text;html=1;align=center;verticalAlign=middle;whiteSpace=wrap;rounded=0;" vertex="1" parent="1">
          <mxGeometry x="100" y="411.25" width="60" height="30" as="geometry" />
        </mxCell>
        <mxCell id="uV-7LG1ietYZEQFbntfc-96" value="Data&lt;div&gt;&lt;span style=&quot;background-color: transparent; color: light-dark(rgb(0, 0, 0), rgb(255, 255, 255));&quot;&gt;Packages&lt;/span&gt;&lt;/div&gt;" style="text;html=1;align=center;verticalAlign=middle;whiteSpace=wrap;rounded=0;" vertex="1" parent="1">
          <mxGeometry x="43.43" y="490" width="93.14" height="20" as="geometry" />
        </mxCell>
        <mxCell id="uV-7LG1ietYZEQFbntfc-102" value="" style="html=1;dashed=0;whiteSpace=wrap;shape=mxgraph.dfd.start;fillColor=#dae8fc;strokeColor=#6c8ebf;" vertex="1" parent="1">
          <mxGeometry x="80" y="470" width="20" height="9.06" as="geometry" />
        </mxCell>
        <mxCell id="uV-7LG1ietYZEQFbntfc-103" value="B" style="text;html=1;align=center;verticalAlign=middle;whiteSpace=wrap;rounded=0;" vertex="1" parent="1">
          <mxGeometry x="280" y="411.25" width="60" height="30" as="geometry" />
        </mxCell>
        <mxCell id="uV-7LG1ietYZEQFbntfc-114" value="Channel&lt;div&gt;Situation&lt;/div&gt;" style="text;html=1;align=center;verticalAlign=middle;whiteSpace=wrap;rounded=0;" vertex="1" parent="1">
          <mxGeometry x="110" y="490" width="93.14" height="20" as="geometry" />
        </mxCell>
        <mxCell id="uV-7LG1ietYZEQFbntfc-120" value="" style="points=[[0,0.58,0],[0.09,0.58,0],[0.36,0.39,0],[0.64,0.195,0],[0.91,0,0],[1,0,0],[1,0.25,0],[1,0.5,0],[1,0.75,0],[1,1,0],[0,1,0],[0.09,1,0],[0.36,1,0],[0.64,1,0],[0.91,1,0],[0,0.79,0]];verticalLabelPosition=bottom;sketch=0;html=1;verticalAlign=top;aspect=fixed;align=center;pointerEvents=1;shape=mxgraph.cisco19.wifi_indicator;fillColor=#005073;strokeColor=none;" vertex="1" parent="1">
          <mxGeometry x="191.14" y="270" width="12" height="12" as="geometry" />
        </mxCell>
        <mxCell id="uV-7LG1ietYZEQFbntfc-121" value="" style="verticalLabelPosition=bottom;aspect=fixed;html=1;shape=mxgraph.salesforce.iot2;" vertex="1" parent="1">
          <mxGeometry x="580" y="351.25" width="60" height="60" as="geometry" />
        </mxCell>
        <mxCell id="uV-7LG1ietYZEQFbntfc-129" style="edgeStyle=orthogonalEdgeStyle;rounded=0;orthogonalLoop=1;jettySize=auto;html=1;dashed=1;" edge="1" parent="1" source="uV-7LG1ietYZEQFbntfc-123" target="uV-7LG1ietYZEQFbntfc-121">
          <mxGeometry relative="1" as="geometry" />
        </mxCell>
        <mxCell id="uV-7LG1ietYZEQFbntfc-123" value="" style="verticalLabelPosition=bottom;aspect=fixed;html=1;shape=mxgraph.salesforce.iot2;" vertex="1" parent="1">
          <mxGeometry x="400" y="351.25" width="60" height="60" as="geometry" />
        </mxCell>
        <mxCell id="uV-7LG1ietYZEQFbntfc-124" value="" style="verticalLabelPosition=bottom;aspect=fixed;html=1;shape=mxgraph.salesforce.communications2;" vertex="1" parent="1">
          <mxGeometry x="493.14" y="160" width="60" height="60" as="geometry" />
        </mxCell>
        <mxCell id="uV-7LG1ietYZEQFbntfc-125" value="" style="html=1;dashed=0;whiteSpace=wrap;shape=mxgraph.dfd.start;fillColor=#dae8fc;strokeColor=#6c8ebf;direction=west;" vertex="1" parent="1">
          <mxGeometry x="466.6647058823529" y="375.7963636363636" width="26.470588235294116" height="10.909090909090908" as="geometry" />
        </mxCell>
        <mxCell id="uV-7LG1ietYZEQFbntfc-126" value="A" style="text;html=1;align=center;verticalAlign=middle;whiteSpace=wrap;rounded=0;" vertex="1" parent="1">
          <mxGeometry x="400" y="411.25" width="60" height="30" as="geometry" />
        </mxCell>
        <mxCell id="uV-7LG1ietYZEQFbntfc-127" value="B" style="text;html=1;align=center;verticalAlign=middle;whiteSpace=wrap;rounded=0;" vertex="1" parent="1">
          <mxGeometry x="580" y="411.25" width="60" height="30" as="geometry" />
        </mxCell>
        <mxCell id="uV-7LG1ietYZEQFbntfc-140" value="" style="points=[[0,0.58,0],[0.09,0.58,0],[0.36,0.39,0],[0.64,0.195,0],[0.91,0,0],[1,0,0],[1,0.25,0],[1,0.5,0],[1,0.75,0],[1,1,0],[0,1,0],[0.09,1,0],[0.36,1,0],[0.64,1,0],[0.91,1,0],[0,0.79,0]];verticalLabelPosition=bottom;sketch=0;html=1;verticalAlign=top;aspect=fixed;align=center;pointerEvents=1;shape=mxgraph.cisco19.wifi_indicator;fillColor=#005073;strokeColor=none;" vertex="1" parent="1">
          <mxGeometry x="510.14" y="363.8" width="12" height="12" as="geometry" />
        </mxCell>
        <mxCell id="uV-7LG1ietYZEQFbntfc-141" value="" style="points=[[0,0.58,0],[0.09,0.58,0],[0.36,0.39,0],[0.64,0.195,0],[0.91,0,0],[1,0,0],[1,0.25,0],[1,0.5,0],[1,0.75,0],[1,1,0],[0,1,0],[0.09,1,0],[0.36,1,0],[0.64,1,0],[0.91,1,0],[0,0.79,0]];verticalLabelPosition=bottom;sketch=0;html=1;verticalAlign=top;aspect=fixed;align=center;pointerEvents=1;shape=mxgraph.cisco19.wifi_indicator;fillColor=#005073;strokeColor=none;" vertex="1" parent="1">
          <mxGeometry x="524.14" y="363.8" width="12" height="12" as="geometry" />
        </mxCell>
        <mxCell id="uV-7LG1ietYZEQFbntfc-144" value="" style="points=[[0,0.58,0],[0.09,0.58,0],[0.36,0.39,0],[0.64,0.195,0],[0.91,0,0],[1,0,0],[1,0.25,0],[1,0.5,0],[1,0.75,0],[1,1,0],[0,1,0],[0.09,1,0],[0.36,1,0],[0.64,1,0],[0.91,1,0],[0,0.79,0]];verticalLabelPosition=bottom;sketch=0;html=1;verticalAlign=top;aspect=fixed;align=center;pointerEvents=1;shape=mxgraph.cisco19.wifi_indicator;fillColor=#005073;strokeColor=none;" vertex="1" parent="1">
          <mxGeometry x="573.24" y="270" width="12" height="12" as="geometry" />
        </mxCell>
        <mxCell id="uV-7LG1ietYZEQFbntfc-145" value="" style="points=[[0,0.58,0],[0.09,0.58,0],[0.36,0.39,0],[0.64,0.195,0],[0.91,0,0],[1,0,0],[1,0.25,0],[1,0.5,0],[1,0.75,0],[1,1,0],[0,1,0],[0.09,1,0],[0.36,1,0],[0.64,1,0],[0.91,1,0],[0,0.79,0]];verticalLabelPosition=bottom;sketch=0;html=1;verticalAlign=top;aspect=fixed;align=center;pointerEvents=1;shape=mxgraph.cisco19.wifi_indicator;fillColor=#005073;strokeColor=none;" vertex="1" parent="1">
          <mxGeometry x="587.24" y="270" width="12" height="12" as="geometry" />
        </mxCell>
        <mxCell id="uV-7LG1ietYZEQFbntfc-146" value="" style="html=1;dashed=0;whiteSpace=wrap;shape=mxgraph.dfd.start;fillColor=#dae8fc;strokeColor=#6c8ebf;direction=west;" vertex="1" parent="1">
          <mxGeometry x="572.7647058823529" y="318.29636363636354" width="26.470588235294116" height="10.909090909090908" as="geometry" />
        </mxCell>
        <mxCell id="uV-7LG1ietYZEQFbntfc-156" value="" style="group" vertex="1" connectable="0" parent="1">
          <mxGeometry x="143.61" y="464.53" width="30" height="20" as="geometry" />
        </mxCell>
        <mxCell id="uV-7LG1ietYZEQFbntfc-149" value="" style="points=[[0,0.58,0],[0.09,0.58,0],[0.36,0.39,0],[0.64,0.195,0],[0.91,0,0],[1,0,0],[1,0.25,0],[1,0.5,0],[1,0.75,0],[1,1,0],[0,1,0],[0.09,1,0],[0.36,1,0],[0.64,1,0],[0.91,1,0],[0,0.79,0]];verticalLabelPosition=bottom;sketch=0;html=1;verticalAlign=top;aspect=fixed;align=center;pointerEvents=1;shape=mxgraph.cisco19.wifi_indicator;fillColor=#005073;strokeColor=none;" vertex="1" parent="uV-7LG1ietYZEQFbntfc-156">
          <mxGeometry width="14.383315354189138" height="14.383315354189138" as="geometry" />
        </mxCell>
        <mxCell id="uV-7LG1ietYZEQFbntfc-152" value="" style="points=[[0,0.58,0],[0.09,0.58,0],[0.36,0.39,0],[0.64,0.195,0],[0.91,0,0],[1,0,0],[1,0.25,0],[1,0.5,0],[1,0.75,0],[1,1,0],[0,1,0],[0.09,1,0],[0.36,1,0],[0.64,1,0],[0.91,1,0],[0,0.79,0]];verticalLabelPosition=bottom;sketch=0;html=1;verticalAlign=top;aspect=fixed;align=center;pointerEvents=1;shape=mxgraph.cisco19.wifi_indicator;fillColor=#005073;strokeColor=none;" vertex="1" parent="uV-7LG1ietYZEQFbntfc-156">
          <mxGeometry x="15.616684645810857" width="14.383315354189138" height="14.383315354189138" as="geometry" />
        </mxCell>
        <mxCell id="uV-7LG1ietYZEQFbntfc-172" value="" style="points=[[0,0.58,0],[0.09,0.58,0],[0.36,0.39,0],[0.64,0.195,0],[0.91,0,0],[1,0,0],[1,0.25,0],[1,0.5,0],[1,0.75,0],[1,1,0],[0,1,0],[0.09,1,0],[0.36,1,0],[0.64,1,0],[0.91,1,0],[0,0.79,0]];verticalLabelPosition=bottom;sketch=0;html=1;verticalAlign=top;aspect=fixed;align=center;pointerEvents=1;shape=mxgraph.cisco19.wifi_indicator;fillColor=#005073;strokeColor=none;" vertex="1" parent="1">
          <mxGeometry x="270" y="270" width="12" height="12" as="geometry" />
        </mxCell>
        <mxCell id="uV-7LG1ietYZEQFbntfc-173" value="" style="points=[[0,0.58,0],[0.09,0.58,0],[0.36,0.39,0],[0.64,0.195,0],[0.91,0,0],[1,0,0],[1,0.25,0],[1,0.5,0],[1,0.75,0],[1,1,0],[0,1,0],[0.09,1,0],[0.36,1,0],[0.64,1,0],[0.91,1,0],[0,0.79,0]];verticalLabelPosition=bottom;sketch=0;html=1;verticalAlign=top;aspect=fixed;align=center;pointerEvents=1;shape=mxgraph.cisco19.wifi_indicator;fillColor=#005073;strokeColor=none;" vertex="1" parent="1">
          <mxGeometry x="284" y="270" width="12" height="12" as="geometry" />
        </mxCell>
        <mxCell id="uV-7LG1ietYZEQFbntfc-174" value="" style="html=1;dashed=0;whiteSpace=wrap;shape=mxgraph.dfd.start;fillColor=#ffe6cc;strokeColor=#d79b00;" vertex="1" parent="1">
          <mxGeometry x="80" y="455.47" width="20" height="9.06" as="geometry" />
        </mxCell>
        <mxCell id="uV-7LG1ietYZEQFbntfc-176" value="" style="html=1;dashed=0;whiteSpace=wrap;shape=mxgraph.dfd.start;fillColor=#ffe6cc;strokeColor=#d79b00;" vertex="1" parent="1">
          <mxGeometry x="269.5247058823529" y="318.2963636363636" width="26.470588235294116" height="10.909090909090908" as="geometry" />
        </mxCell>
        <mxCell id="uV-7LG1ietYZEQFbntfc-177" value="" style="html=1;dashed=0;whiteSpace=wrap;shape=mxgraph.dfd.start;fillColor=#ffe6cc;strokeColor=#d79b00;" vertex="1" parent="1">
          <mxGeometry x="573.244705882353" y="329.2063636363636" width="26.470588235294116" height="10.909090909090908" as="geometry" />
        </mxCell>
      </root>
    </mxGraphModel>
  </diagram>
</mxfile>
